Coordinates
version=1
nRows=5
nColumns=40
inDegrees=yes

Units are S.I. units (second, meters, Newtons, ...)
If the header above contains a line with 'inDegrees', this indicates whether rotational values are in degrees (yes) or radians (no).

endheader
time	pelvis_tilt	pelvis_list	pelvis_rotation	pelvis_tx	pelvis_ty	pelvis_tz	hip_flexion_r	hip_adduction_r	hip_rotation_r	knee_angle_r	knee_angle_r_beta	ankle_angle_r	subtalar_angle_r	mtp_angle_r	hip_flexion_l	hip_adduction_l	hip_rotation_l	knee_angle_l	knee_angle_l_beta	ankle_angle_l	subtalar_angle_l	mtp_angle_l	lumbar_extension	lumbar_bending	lumbar_rotation	arm_flex_r	arm_add_r	arm_rot_r	elbow_flex_r	pro_sup_r	wrist_flex_r	wrist_dev_r	arm_flex_l	arm_add_l	arm_rot_l	elbow_flex_l	pro_sup_l	wrist_flex_l	wrist_dev_l
      1.25000000	    -10.36114670	      1.22852853	     -5.10570206	     -0.28455029	      1.03437771	     -1.08460357	      9.20622917	    -11.18465625	     -2.54387941	     62.34426381	      1.08811267	     -9.75402582	      0.00000000	      0.00000000	     18.00975249	      4.65475550	     -2.40326172	     16.10157812	      0.28102555	     -5.29879398	      0.00000000	      0.00000000	      1.61780601	     -5.73311668	      6.42700288	     89.94721963	    -15.98201736	     25.85140388	     41.07702534	     79.46681622	      0.00000000	      0.00000000	     89.91227994	    -28.31362095	     20.71967681	     40.01906476	     85.44368596	      0.00000000	      0.00000000
      1.25500000	    -10.41204029	      1.26183192	     -5.03404485	     -0.28466221	      1.03417305	     -1.08475221	      9.22142185	    -11.24439476	     -2.65241447	     62.34098356	      1.08805542	     -9.64219208	      0.00000000	      0.00000000	     18.11589892	      4.68412786	     -2.45573824	     16.17248548	      0.28226312	     -5.31130140	      0.00000000	      0.00000000	      1.67117314	     -5.78363096	      6.34627848	     89.94732394	    -15.92077666	     25.59688415	     41.01731818	     81.05112557	      0.00000000	      0.00000000	     89.91255217	    -28.30196383	     20.80271142	     39.97483130	     85.18369208	      0.00000000	      0.00000000
      1.26000000	    -10.47136033	      1.25693867	     -4.96252184	     -0.28504852	      1.03399427	     -1.08489069	      9.26983394	    -11.24627896	     -2.74314857	     62.33561014	      1.08796164	     -9.68509276	      0.00000000	      0.00000000	     18.25493568	      4.69321538	     -2.38283539	     16.27113789	      0.28398493	     -5.28938048	      0.00000000	      0.00000000	      1.69726189	     -5.78620370	      6.28696244	     89.94743464	    -15.93527040	     25.61227765	     41.09938707	     80.65843562	      0.00000000	      0.00000000	     89.91295395	    -28.20039491	     20.72779410	     40.00434632	     85.14823765	      0.00000000	      0.00000000
      1.26500000	    -10.49812653	      1.28472421	     -4.90329633	     -0.28526933	      1.03386369	     -1.08499237	      9.27018800	    -11.25395073	     -2.75160064	     62.32353232	      1.08775084	     -9.66250218	      0.00000000	      0.00000000	     18.33525740	      4.72702522	     -2.36262718	     16.35610605	      0.28546790	     -5.25162450	      0.00000000	      0.00000000	      1.70645251	     -5.83647962	      6.24090445	     89.94761124	    -15.93979517	     25.59696112	     41.12732883	     80.64843199	      0.00000000	      0.00000000	     89.91315688	    -28.11019135	     20.66129197	     39.97042581	     85.26155565	      0.00000000	      0.00000000
      1.27000000	    -10.53090255	      1.32178036	     -4.86425287	     -0.28552768	      1.03373575	     -1.08507932	      9.29354677	    -11.29869702	     -2.82431907	     62.31239783	      1.08755651	     -9.67024558	      0.00000000	      0.00000000	     18.41684668	      4.76835356	     -2.32737069	     16.40702761	      0.28635665	     -5.23683868	      0.00000000	      0.00000000	      1.72122350	     -5.89701261	      6.24165508	     89.94755313	    -15.98308404	     25.81114630	     41.24266011	     77.82897704	      0.00000000	      0.00000000	     89.91414213	    -27.99355779	     20.99392759	     39.92588005	     82.35447296	      0.00000000	      0.00000000
